<svg width="160" height="32" viewBox="0 0 160 32" fill="none" xmlns="http://www.w3.org/2000/svg">
<path d="M1.62793 6.36815C1.62793 5.86825 1.86723 5.6183 2.34583 5.6183H11.4191C12.4434 5.60941 13.4571 5.82686 14.3878 6.25512C15.2644 6.65769 16.0543 7.22708 16.7134 7.93154C18.0426 9.36317 18.7817 11.2443 18.7827 13.198C18.7843 14.1575 18.6028 15.1086 18.2479 16C17.8995 16.8824 17.39 17.6922 16.7452 18.3881C16.0921 19.0912 15.3081 19.6601 14.4371 20.0629C13.5168 20.4916 12.5123 20.7092 11.4971 20.6997H8.02854C7.55444 20.6997 7.09976 20.8881 6.76452 21.2233C6.42929 21.5586 6.24095 22.0134 6.24095 22.4876V28.6328C6.24095 29.0913 6.00218 29.3206 5.52464 29.3206H2.32832C1.86139 29.3206 1.62793 29.0913 1.62793 28.6328V6.36815ZM14.1251 13.1741C14.1238 12.7323 14.0368 12.2949 13.8688 11.8862C13.7029 11.4756 13.4646 11.0981 13.1653 10.7717C12.8615 10.4413 12.498 10.1712 12.094 9.97572C11.6701 9.77159 11.205 9.66756 10.7346 9.67164H8.02854C7.79352 9.67164 7.56081 9.71799 7.34372 9.80803C7.12663 9.89808 6.92943 10.0301 6.7634 10.1964C6.59736 10.3628 6.46576 10.5602 6.37611 10.7775C6.28646 10.9948 6.24053 11.2276 6.24095 11.4627V14.8903C6.24095 15.3645 6.42929 15.8193 6.76452 16.1546C7.09976 16.4898 7.55444 16.6782 8.02854 16.6782H10.7346C11.1975 16.6843 11.6561 16.5886 12.0781 16.398C12.4847 16.212 12.8512 15.9487 13.1573 15.6227C13.4605 15.2978 13.7016 14.9201 13.8688 14.5083C14.0409 14.0847 14.128 13.6313 14.1251 13.1741Z" fill="#F7AC06"/>
<path d="M43.6649 9.51086C43.7549 9.37206 43.8824 9.26165 44.0326 9.19245C44.1381 9.09918 44.2755 9.05014 44.4162 9.05554C44.5866 9.05554 44.7457 9.04758 44.8938 9.04758H46.5063C46.6368 9.03793 46.7677 9.06063 46.8874 9.11367C47.0071 9.16671 47.1118 9.24846 47.1923 9.35166C47.341 9.55337 47.4447 9.78464 47.4964 10.0299L47.6715 11.7222C47.9361 11.337 48.2378 10.9786 48.5724 10.6524C48.9533 10.2832 49.3815 9.96624 49.8459 9.70987C50.3742 9.41804 50.9367 9.19291 51.5204 9.03962C52.2137 8.85958 52.9276 8.77126 53.6439 8.77693C54.7942 8.75711 55.935 8.98856 56.9867 9.45514C57.9373 9.88651 58.7817 10.5213 59.4603 11.3146C60.1469 12.131 60.6652 13.0752 60.9852 14.0928C61.3379 15.2019 61.513 16.3598 61.5042 17.5236V28.1791C61.528 28.4906 61.4305 28.7992 61.232 29.0404C61.1292 29.1406 61.0065 29.218 60.8718 29.2676C60.7372 29.3173 60.5936 29.338 60.4504 29.3286H58.0293C57.6027 29.3286 57.3193 29.2474 57.1761 29.0882C57.0328 28.929 56.9596 28.6472 56.9596 28.2428V17.6032C56.9583 17.0402 56.8597 16.4817 56.6683 15.9523C56.4808 15.4225 56.1963 14.9323 55.8294 14.5067C55.4524 14.0734 54.9874 13.7255 54.4653 13.4862C53.3864 13.0064 52.1613 12.9743 51.0588 13.397C50.5334 13.5937 50.0448 13.8773 49.6135 14.236C49.1729 14.6036 48.8048 15.0501 48.5279 15.5527C48.235 16.0898 48.0817 16.692 48.0822 17.3039V27.6522C48.0819 27.8548 48.0712 28.0572 48.0503 28.2587C48.0323 28.4456 47.9862 28.6286 47.9134 28.8016C47.8508 28.9528 47.7492 29.0847 47.6189 29.1837C47.4743 29.285 47.3003 29.3359 47.1239 29.3286H44.4958C44.1446 29.3286 43.8867 29.2458 43.7222 29.0802C43.6349 28.9848 43.5679 28.8727 43.5252 28.7507C43.4826 28.6286 43.4651 28.4992 43.4739 28.3702V9.99006C43.484 9.81386 43.5511 9.6457 43.6649 9.51086Z" fill="#F7AC06"/>
<path d="M79.1422 27.0057C78.7579 27.3881 78.3444 27.74 77.9054 28.0581C77.4511 28.3906 76.9648 28.6769 76.4537 28.913C75.9273 29.1557 75.3781 29.3456 74.8141 29.4798C74.2205 29.6197 73.6125 29.6892 73.0027 29.6867C71.6222 29.6982 70.2547 29.4183 68.9898 28.8652C66.5267 27.7902 64.5859 25.7884 63.5872 23.2931C62.5451 20.6683 62.5451 17.7444 63.5872 15.1196C64.5859 12.6242 66.5267 10.6225 68.9898 9.54744C70.2547 8.99438 71.6222 8.71446 73.0027 8.72594C74.1838 8.70146 75.3558 8.9385 76.4346 9.42007C77.4217 9.88201 78.3145 10.5233 79.0674 11.3114V3.98803C79.0602 3.85768 79.0812 3.72732 79.1289 3.6058C79.1767 3.48429 79.25 3.37448 79.3439 3.28384C79.4379 3.19321 79.5502 3.12387 79.6734 3.08055C79.7965 3.03724 79.9275 3.02095 80.0575 3.03281H82.6744C82.9271 3.03579 83.1704 3.12895 83.3605 3.2955C83.4637 3.3786 83.5462 3.48457 83.6015 3.60503C83.6567 3.7255 83.6832 3.85716 83.6788 3.98963V28.3638C83.6788 29.0006 83.3382 29.319 82.6569 29.319H80.2692C79.9509 29.319 79.7328 29.2378 79.615 29.0786C79.4698 28.8585 79.3622 28.6159 79.2966 28.3606L79.1422 27.0057ZM67.2849 19.2159C67.2799 20.043 67.4317 20.8636 67.7322 21.6342C68.0142 22.371 68.437 23.0459 68.977 23.6211C69.5089 24.1857 70.1459 24.641 70.8522 24.9616C71.5913 25.2967 72.3949 25.4657 73.2064 25.4567C74.0239 25.4613 74.8333 25.2954 75.583 24.9695C76.3114 24.6571 76.9728 24.2074 77.5313 23.6449C78.0866 23.0828 78.5329 22.4226 78.8477 21.6979C79.174 20.9492 79.3503 20.1439 79.3667 19.3273V19.2159C79.3693 18.3887 79.207 17.5692 78.8891 16.8055C78.5811 16.0578 78.1375 15.3734 77.5807 14.7868C77.0227 14.2043 76.3594 13.7327 75.626 13.397C74.8669 13.0499 74.041 12.8733 73.2064 12.8796C72.3926 12.871 71.5874 13.0479 70.8522 13.397C70.1442 13.7365 69.5078 14.2082 68.977 14.7868C68.4388 15.3755 68.0165 16.0603 67.7322 16.8055C67.4331 17.5738 67.2814 18.3915 67.2849 19.2159Z" fill="#F7AC06"/>
<path d="M86.2926 2.95486C86.2926 2.31805 86.6061 1.99964 87.2333 1.99964H89.9155C90.175 1.98371 90.4311 2.06549 90.6334 2.22889C90.7283 2.32215 90.8016 2.43501 90.8484 2.55958C90.8951 2.68415 90.9141 2.81742 90.904 2.95009V5.33815C90.9013 5.59286 90.8114 5.83896 90.6493 6.03546C90.5654 6.1436 90.457 6.23019 90.333 6.28806C90.2089 6.34592 90.0729 6.37339 89.9362 6.3682H87.2492C86.6125 6.3682 86.2941 6.02644 86.2941 5.34292L86.2926 2.95486ZM86.2926 10.0219C86.2842 9.76908 86.3692 9.522 86.5313 9.3278C86.6195 9.23187 86.728 9.1569 86.8489 9.10842C86.9699 9.05993 87.1001 9.03915 87.2301 9.0476H89.8805C90.0035 9.04872 90.1251 9.07358 90.2386 9.12083C90.3604 9.16768 90.4718 9.238 90.5665 9.3278C90.6618 9.41823 90.7423 9.52297 90.8053 9.63825C90.8689 9.75607 90.9017 9.88803 90.9008 10.0219V28.3622C90.9008 28.999 90.566 29.3174 89.8964 29.3174H87.2492C86.6125 29.3174 86.2941 28.999 86.2941 28.3622L86.2926 10.0219Z" fill="#F7AC06"/>
<path d="M114.732 28.3781C114.74 28.5456 114.699 28.7118 114.613 28.8557C114.535 28.9762 114.429 29.0749 114.302 29.1423C114.165 29.2149 114.017 29.2638 113.863 29.2872C113.691 29.3137 113.518 29.327 113.344 29.327H111.35C111.009 29.327 110.772 29.2362 110.64 29.0547C110.495 28.8489 110.394 28.6153 110.344 28.3686L110.248 27.0122C109.865 27.3937 109.452 27.743 109.011 28.0565C108.552 28.385 108.063 28.6686 107.55 28.9035C107.017 29.1428 106.461 29.3269 105.891 29.4528C105.299 29.5858 104.694 29.6526 104.088 29.6518C103.152 29.6542 102.22 29.5284 101.318 29.2776C100.444 29.0335 99.605 28.6794 98.8205 28.2237C98.0468 27.7739 97.336 27.2235 96.7066 26.5871C96.0755 25.9521 95.5283 25.2389 95.0782 24.4649C94.6226 23.6814 94.2685 22.8431 94.0244 21.9702C93.5257 20.1409 93.5257 18.2114 94.0244 16.3821C94.2676 15.5054 94.6217 14.6633 95.0782 13.8762C95.9799 12.323 97.2694 11.0305 98.8205 10.1254C99.6055 9.67148 100.445 9.31844 101.318 9.07465C102.22 8.82315 103.152 8.69725 104.088 8.70052C104.743 8.69774 105.396 8.76985 106.035 8.91544C106.632 9.05119 107.212 9.25358 107.765 9.51882C108.296 9.77589 108.796 10.0921 109.256 10.4613C109.709 10.8226 110.125 11.2261 110.501 11.6665L110.726 9.95823C110.768 9.79657 110.818 9.63716 110.877 9.48062C110.916 9.37228 110.975 9.27234 111.052 9.18609C111.122 9.10807 111.214 9.05267 111.316 9.02688C111.447 8.99824 111.58 8.98488 111.714 8.98708H113.306C113.477 8.98719 113.648 9.00318 113.817 9.03484C113.978 9.06557 114.134 9.11918 114.28 9.19405C114.42 9.2592 114.537 9.36464 114.616 9.49683C114.696 9.62902 114.734 9.78193 114.726 9.93594L114.732 28.3781ZM98.1345 19.1682C98.1302 19.9952 98.2819 20.8157 98.5818 21.5865C98.8662 22.3269 99.2886 23.0065 99.8265 23.5893C100.356 24.1626 100.993 24.6261 101.702 24.9537C102.439 25.2936 103.244 25.4655 104.056 25.4567C104.889 25.4629 105.713 25.2914 106.474 24.9537C107.208 24.6299 107.872 24.1665 108.429 23.5893C108.986 23.009 109.429 22.3297 109.737 21.5865C110.376 20.0431 110.376 18.3092 109.737 16.7658C109.429 16.0226 108.986 15.3433 108.429 14.763C107.87 14.1848 107.207 13.7185 106.474 13.3891C105.714 13.0478 104.889 12.874 104.056 12.8796C103.243 12.8714 102.439 13.0455 101.702 13.3891C100.994 13.7223 100.357 14.1887 99.8265 14.763C99.2886 15.3458 98.8662 16.0254 98.5818 16.7658C98.283 17.5313 98.1312 18.3464 98.1345 19.1682Z" fill="#F7AC06"/>
<path d="M117.412 9.51085C117.502 9.37205 117.63 9.26164 117.78 9.19244C117.885 9.09916 118.023 9.05013 118.163 9.05553C118.332 9.05553 118.493 9.04757 118.641 9.04757H120.253C120.384 9.03792 120.515 9.06062 120.635 9.11366C120.754 9.1667 120.859 9.24844 120.94 9.35164C121.088 9.55335 121.192 9.78463 121.244 10.0299L121.419 11.7222C121.683 11.337 121.985 10.9786 122.32 10.6523C122.701 10.2834 123.129 9.96651 123.593 9.70985C124.122 9.41829 124.685 9.19318 125.269 9.0396C125.963 8.86225 126.677 8.77661 127.393 8.78488C128.546 8.7639 129.689 8.99538 130.743 9.46309C131.694 9.89446 132.538 10.5292 133.217 11.3226C133.903 12.1395 134.421 13.0835 134.742 14.1007C135.095 15.2098 135.27 16.3677 135.261 17.5315V28.1791C135.285 28.4906 135.187 28.7992 134.989 29.0404C134.886 29.1404 134.763 29.2177 134.628 29.2673C134.494 29.3169 134.35 29.3378 134.207 29.3286H131.776C131.35 29.3286 131.067 29.2474 130.922 29.0882C130.777 28.929 130.707 28.6472 130.707 28.2428V17.6032C130.707 17.0405 130.61 16.482 130.42 15.9522C130.233 15.4225 129.948 14.9323 129.581 14.5067C129.204 14.0734 128.739 13.7255 128.217 13.4862C127.138 13.0059 125.912 12.9739 124.809 13.397C124.284 13.5939 123.795 13.8775 123.364 14.236C122.923 14.6036 122.555 15.0501 122.278 15.5526C121.985 16.0898 121.832 16.692 121.833 17.3039V27.6521C121.832 27.8547 121.822 28.0572 121.801 28.2587C121.783 28.4455 121.737 28.6286 121.664 28.8016C121.601 28.9528 121.5 29.0847 121.369 29.1837C121.225 29.2849 121.051 29.3358 120.874 29.3286H118.243C117.891 29.3286 117.632 29.2458 117.468 29.0802C117.381 28.9847 117.314 28.8725 117.272 28.7505C117.229 28.6284 117.212 28.499 117.221 28.3702V9.99005C117.231 9.81385 117.298 9.64569 117.412 9.51085Z" fill="#F7AC06"/>
<path d="M157.551 28.3781C157.559 28.5456 157.518 28.7118 157.432 28.8557C157.352 28.9771 157.242 29.0758 157.113 29.1423C156.976 29.2153 156.828 29.2644 156.674 29.2872C156.503 29.3137 156.33 29.327 156.157 29.327H154.167C153.826 29.327 153.591 29.2362 153.457 29.0547C153.313 28.8484 153.213 28.615 153.163 28.3686L153.067 27.0122C152.684 27.3937 152.271 27.743 151.83 28.0565C151.371 28.3847 150.882 28.6683 150.369 28.9035C149.836 29.1431 149.279 29.3271 148.709 29.4528C148.117 29.5859 147.513 29.6527 146.907 29.6518C145.971 29.6542 145.039 29.5284 144.137 29.2776C143.263 29.0335 142.424 28.6794 141.64 28.2237C140.866 27.7735 140.154 27.2232 139.524 26.5871C138.894 25.9516 138.347 25.2385 137.897 24.4649C137.442 23.6814 137.088 22.8431 136.843 21.9702C136.343 20.1412 136.343 18.2111 136.843 16.3821C137.087 15.5054 137.441 14.6633 137.897 13.8762C138.798 12.322 140.087 11.0293 141.64 10.1254C142.425 9.67148 143.264 9.31844 144.137 9.07465C145.039 8.82315 145.971 8.69725 146.907 8.70052C147.562 8.69774 148.215 8.76985 148.854 8.91544C149.451 9.05144 150.031 9.25383 150.584 9.51882C151.115 9.77589 151.615 10.0921 152.075 10.4613C152.527 10.823 152.944 11.2265 153.32 11.6665L153.543 9.95823C153.597 9.76718 153.648 9.60957 153.702 9.48062C153.741 9.37199 153.8 9.27194 153.877 9.18609C153.947 9.10781 154.038 9.05233 154.14 9.02688C154.271 8.99834 154.405 8.98498 154.539 8.98708H156.131C156.302 8.98726 156.473 9.00325 156.641 9.03484C156.802 9.06557 156.958 9.11918 157.104 9.19405C157.244 9.25879 157.362 9.36409 157.441 9.49634C157.521 9.62859 157.559 9.78172 157.551 9.93594V28.3781ZM140.953 19.1682C140.949 19.9951 141.1 20.8156 141.399 21.5865C141.685 22.3266 142.108 23.0062 142.646 23.5893C143.175 24.1629 143.812 24.6266 144.521 24.9537C145.258 25.2935 146.062 25.4653 146.873 25.4567C147.706 25.4632 148.53 25.2917 149.291 24.9537C150.026 24.6304 150.69 24.1669 151.248 23.5893C151.804 23.0085 152.248 22.3294 152.556 21.5865C153.193 20.0427 153.193 18.3096 152.556 16.7658C152.248 16.0229 151.804 15.3437 151.248 14.763C150.689 14.1844 150.025 13.7181 149.291 13.3891C148.531 13.0474 147.707 12.8737 146.873 12.8796C146.061 12.8716 145.257 13.0457 144.521 13.3891C143.813 13.7218 143.176 14.1884 142.646 14.763C142.108 15.3461 141.685 16.0256 141.399 16.7658C141.101 17.5314 140.95 18.3465 140.953 19.1682Z" fill="#F7AC06"/>
<path d="M40.8647 9.48699C40.7838 9.36371 40.671 9.26467 40.5384 9.20042C40.3923 9.12555 40.2363 9.07194 40.0751 9.04122C39.9067 9.00955 39.7356 8.99356 39.5642 8.99346H37.9724C37.8386 8.99125 37.7051 9.00461 37.5744 9.03326C37.4726 9.05904 37.3806 9.11444 37.3102 9.19246C37.2338 9.27872 37.1744 9.37865 37.1351 9.48699C37.0766 9.64353 37.0262 9.80294 36.9839 9.9646L36.7547 11.6665C36.379 11.2261 35.9622 10.8226 35.5099 10.4613C35.0497 10.0921 34.5494 9.7759 34.0184 9.51883C33.4655 9.25347 32.8846 9.05108 32.2865 8.91545C31.6479 8.76976 30.9947 8.69765 30.3397 8.70052C29.4037 8.69725 28.4717 8.82315 27.57 9.07465C26.6965 9.31945 25.8573 9.67356 25.0725 10.1286C23.5228 11.0306 22.2334 12.3191 21.3302 13.8683C20.8737 14.6553 20.5196 15.4974 20.2764 16.3742C19.7777 18.2034 19.7777 20.1329 20.2764 21.9622C20.5196 22.839 20.8737 23.6811 21.3302 24.4681C21.7804 25.241 22.3277 25.9531 22.9586 26.5871C23.5879 27.2235 24.2987 27.7739 25.0725 28.2237C25.857 28.6794 26.6962 29.0335 27.57 29.2776C28.4718 29.5284 29.4037 29.6542 30.3397 29.6518C30.9464 29.6526 31.5513 29.5858 32.1432 29.4528C32.7138 29.3238 33.2696 29.1366 33.8019 28.894C34.315 28.6591 34.8043 28.3754 35.2631 28.047C35.7034 27.7335 36.1171 27.3842 36.5 27.0026L36.5955 28.359C36.6457 28.6057 36.7465 28.8394 36.8916 29.0452C37.0242 29.2267 37.2609 29.3174 37.6015 29.3174H39.596C39.7698 29.3175 39.9432 29.3042 40.1149 29.2776C40.2685 29.2543 40.417 29.2053 40.5543 29.1328C40.6834 29.0665 40.7931 28.9677 40.8726 28.8462C40.9586 28.7022 41.0001 28.5361 40.992 28.3686V9.94231C40.9953 9.78131 40.951 9.62293 40.8647 9.48699Z" fill="url(#paint0_linear_315_86)"/>
<path d="M37.3118 15.3361C36.7276 14.2902 35.2011 13.6916 34.0232 15.0368C32.1194 13.5148 30.0813 13.215 27.9091 14.1373C27.1259 12.6026 25.5723 12.6313 24.778 13.3875C24.3191 13.8124 24.04 14.3968 23.998 15.0209C23.9565 15.4032 24.0008 15.79 24.1278 16.153C24.2547 16.516 24.4611 16.8461 24.7318 17.1192C24.5918 17.401 24.4485 17.6653 24.3228 17.9391C23.8954 18.8441 23.6612 19.8282 23.6351 20.8287C23.6162 22.0164 23.9347 23.1852 24.5536 24.199C24.5833 24.2373 24.5994 24.2843 24.5994 24.3328C24.5994 24.3812 24.5833 24.4282 24.5536 24.4665C24.3745 24.7471 24.2118 25.0379 24.0665 25.3373C23.7656 25.9741 23.5555 26.6539 23.6144 27.407C23.6351 27.6633 23.694 27.9164 23.7402 28.1871C23.8468 28.3734 23.9566 28.558 24.0585 28.7491C24.0754 28.7565 24.0906 28.7673 24.1031 28.7809C24.3144 29.0541 24.5805 29.2802 24.8842 29.4447C25.1879 29.6092 25.5225 29.7084 25.8668 29.7361C26.5115 29.8062 27.1625 29.7791 27.812 29.803C28.0491 29.8126 28.2895 29.8492 28.5251 29.8667C28.7517 29.8989 28.981 29.909 29.2096 29.8969C29.5805 29.854 29.8463 29.5785 30.066 29.2155C30.0866 29.2538 30.0962 29.2792 30.1105 29.3015C30.4894 29.8667 30.9908 30.0084 31.5813 29.8953C31.8366 29.85 32.0958 29.8308 32.355 29.838C33.1938 29.8524 34.0327 29.9081 34.8509 29.6104C35.2792 29.4671 35.6568 29.2028 35.9381 28.8494C35.9687 28.8088 36.0072 28.7747 36.0511 28.7491C36.1195 28.5978 36.196 28.4514 36.2708 28.3001C36.286 28.2708 36.3041 28.2431 36.3249 28.2173C36.347 28.1589 36.3661 28.0994 36.3822 28.039C36.4501 27.757 36.5 27.4709 36.5318 27.1825C36.5618 26.3882 36.3576 25.6025 35.9445 24.9234C35.9176 24.8829 35.904 24.8351 35.9057 24.7865C35.9075 24.738 35.9243 24.6912 35.954 24.6528C36.1488 24.3015 36.3226 23.9389 36.4745 23.567C36.917 22.3809 36.9314 21.1487 36.699 19.9053C36.6337 19.5471 36.5398 19.1952 36.4602 18.8434C37.7257 18.0808 37.9246 16.4378 37.3118 15.3361ZM34.4036 25.7911C34.1838 25.9666 33.9536 26.1288 33.7143 26.2766C33.6417 26.3187 33.557 26.3349 33.474 26.3228C32.7163 26.2225 31.9761 26.2766 31.2773 26.6619C31.0794 26.7871 30.8887 26.9232 30.7059 27.0695C30.6516 27.113 30.5857 27.1396 30.5164 27.1459C30.1774 27.1284 29.8383 27.0997 29.5009 27.0711C29.4556 27.065 29.4133 27.045 29.3799 27.0138C28.8069 26.4864 28.0605 26.1873 27.2819 26.1732C27.1146 26.1674 26.9528 26.112 26.8171 26.0139C25.81 25.3431 25.0118 24.4025 24.5138 23.2995C23.9116 21.9768 23.8326 20.4752 24.2925 19.0965C24.9627 16.9791 26.2122 15.4699 28.003 14.5704C28.7081 14.2138 29.4893 14.034 30.2793 14.0466C31.8233 14.0657 33.1715 14.6834 34.3033 15.8854C35.5147 17.1797 36.2278 18.7877 36.422 20.6774C36.648 22.8442 35.9142 24.5318 34.4036 25.7911Z" fill="black"/>
<path d="M30.2826 14.0466C31.8266 14.0657 33.1749 14.6834 34.3067 15.8854C35.518 17.1797 36.2311 18.7877 36.4253 20.6774C36.6482 22.8442 35.9144 24.5317 34.4038 25.7958C34.184 25.9714 33.9538 26.1335 33.7145 26.2814C33.6419 26.3234 33.5572 26.3397 33.4741 26.3276C32.7165 26.2273 31.9763 26.2814 31.2775 26.6667C31.0796 26.7919 30.8888 26.9279 30.706 27.0742C30.6518 27.1178 30.5859 27.1444 30.5166 27.1506C30.1775 27.1331 29.8385 27.1045 29.501 27.0758C29.4557 27.0698 29.4134 27.0497 29.3801 27.0185C28.8071 26.4911 28.0606 26.1921 27.2821 26.1779C27.1148 26.1721 26.953 26.1167 26.8173 26.0187C25.8095 25.3465 25.0113 24.4042 24.5139 23.2995C23.9118 21.9768 23.8327 20.4751 24.2927 19.0965C24.9628 16.9791 26.2124 15.4698 28.0031 14.5703C28.7092 14.2132 29.4915 14.0335 30.2826 14.0466ZM29.3594 20.1122C29.3594 19.3831 29.0267 18.8275 28.5221 18.6794C28.2528 18.5893 27.9664 18.5622 27.6849 18.6C27.4035 18.6378 27.1345 18.7396 26.8984 18.8975C26.2617 19.313 25.9434 19.9785 25.8192 20.7793C25.6775 21.7043 26.1376 22.521 26.9096 22.7932C27.4906 22.9954 27.9538 22.7614 28.2053 22.1278C28.296 21.8969 28.3645 21.6581 28.46 21.4273C28.493 21.3207 28.5469 21.2218 28.6185 21.1363C28.6901 21.0507 28.778 20.9802 28.877 20.929C29.2432 20.7634 29.345 20.4275 29.3594 20.1122ZM34.633 21.7186C34.6242 21.2286 34.4958 20.7482 34.2589 20.3192C34.0932 20.0218 33.8568 19.77 33.5705 19.5858C33.2843 19.4017 32.957 19.2911 32.6178 19.2637C31.9206 19.1809 31.3921 19.8225 31.3204 20.515C31.2934 20.6601 31.3044 20.8096 31.3524 20.9491C31.4004 21.0887 31.4837 21.2134 31.5942 21.311C31.7653 21.4567 31.8783 21.659 31.9126 21.881C31.9524 22.1007 31.9795 22.3236 32.0001 22.5465C32.0877 23.473 32.6273 23.7994 33.2545 23.6991C34.13 23.5526 34.6346 22.8474 34.633 21.7186Z" fill="white"/>
<path d="M29.359 20.1122C29.3447 20.4306 29.2428 20.7634 28.8815 20.9257C28.7824 20.977 28.6945 21.0475 28.6229 21.133C28.5513 21.2186 28.4975 21.3175 28.4644 21.4241C28.3753 21.6549 28.3052 21.9017 28.2097 22.1245C27.9582 22.7614 27.495 22.9922 26.914 22.79C26.1356 22.5178 25.6819 21.7011 25.8236 20.7761C25.9462 19.9801 26.2725 19.3098 26.9028 18.8943C27.1389 18.7363 27.4079 18.6346 27.6894 18.5967C27.9708 18.5589 28.2572 18.5861 28.5265 18.6762C29.0263 18.8274 29.3558 19.3831 29.359 20.1122ZM27.6972 20.4513C27.7465 20.3717 27.799 20.3224 27.7958 20.2826C27.7927 20.2428 27.7338 20.1663 27.7019 20.1679C27.6769 20.1763 27.6544 20.1906 27.6364 20.2098C27.6183 20.229 27.6053 20.2523 27.5985 20.2778C27.5953 20.3176 27.6494 20.3685 27.6972 20.4513Z" fill="black"/>
<path d="M34.6329 21.7186C34.6329 22.8474 34.1299 23.5527 33.2512 23.6928C32.6241 23.7931 32.0845 23.4667 31.9969 22.5401C31.9762 22.3172 31.9492 22.0944 31.9094 21.8747C31.8751 21.6526 31.7621 21.4503 31.591 21.3047C31.4805 21.207 31.3971 21.0823 31.3491 20.9428C31.3012 20.8033 31.2902 20.6537 31.3172 20.5087C31.3888 19.8162 31.9173 19.1746 32.6145 19.2573C32.9539 19.2849 33.2813 19.3958 33.5676 19.5802C33.8538 19.7646 34.0902 20.0168 34.2557 20.3145C34.4944 20.7446 34.624 21.2268 34.6329 21.7186ZM33.2544 21.241C33.307 21.1535 33.3579 21.1057 33.3547 21.0611C33.3515 21.0166 33.2942 20.9783 33.2608 20.9354C33.2258 20.9768 33.1685 21.0134 33.1637 21.0579C33.1589 21.1025 33.2083 21.1471 33.2544 21.2363V21.241Z" fill="black"/>
<path d="M30.0752 23.9029C29.5611 24.2213 29.195 24.1735 28.8225 23.7675C28.7111 23.645 28.692 23.5224 28.77 23.4237C28.848 23.325 28.9546 23.3313 29.0708 23.4507C29.351 23.7389 29.6152 23.7691 29.8667 23.5271C29.9286 23.4461 29.9629 23.3473 29.9646 23.2453C29.9664 23.1433 29.9354 23.0435 29.8763 22.9604C29.7137 22.8049 29.6155 22.5942 29.6009 22.3697C29.5866 22.1293 29.6789 21.9813 29.8858 21.9383C30.1496 21.8814 30.425 21.9221 30.661 22.0529C30.7534 22.1015 30.8233 22.1843 30.8557 22.2836C30.8881 22.3829 30.8805 22.4909 30.8345 22.5847C30.7716 22.771 30.644 22.9286 30.4748 23.0288C30.3975 23.1 30.3449 23.1938 30.3243 23.2968C30.3037 23.3997 30.3162 23.5066 30.3602 23.602C30.4143 23.7131 30.5094 23.7989 30.6254 23.8414C30.7415 23.8838 30.8695 23.8796 30.9826 23.8296C31.0478 23.8042 31.1083 23.7612 31.1736 23.7309C31.2723 23.6863 31.3741 23.6688 31.433 23.7994C31.4611 23.852 31.4681 23.9133 31.4528 23.9709C31.4374 24.0285 31.4008 24.0782 31.3503 24.1098C31.2618 24.18 31.1603 24.2321 31.0517 24.263C30.943 24.294 30.8293 24.3032 30.7171 24.2902C30.6049 24.2772 30.4964 24.2422 30.3977 24.1872C30.299 24.1322 30.2122 24.0583 30.1421 23.9697L30.0752 23.9029Z" fill="black"/>
<path d="M27.6976 20.4514C27.6483 20.3686 27.5942 20.3176 27.5989 20.2778C27.6057 20.2524 27.6188 20.229 27.6368 20.2099C27.6549 20.1907 27.6774 20.1763 27.7024 20.168C27.7342 20.168 27.7915 20.238 27.7963 20.2826C27.8011 20.3272 27.7486 20.3781 27.6976 20.4514Z" fill="white"/>
<path d="M33.2541 21.2362C33.208 21.1471 33.1586 21.0961 33.1634 21.0531C33.1682 21.0101 33.2255 20.9719 33.2605 20.9305C33.2939 20.9735 33.3496 21.0117 33.3544 21.0563C33.3592 21.1009 33.3067 21.1487 33.2541 21.2362Z" fill="white"/>
<path d="M28.5205 29.8603C28.5205 29.8603 30.8031 30.2089 32.3504 29.8316C33.8976 29.4543 31.7136 28.5214 31.7136 28.5214H29.8497L28.5205 29.8603Z" fill="black"/>
<defs>
<linearGradient id="paint0_linear_315_86" x1="19.9023" y1="19.1761" x2="40.9841" y2="19.1761" gradientUnits="userSpaceOnUse">
<stop stop-color="#FFBF3F"/>
<stop offset="1" stop-color="#FF9B2A"/>
</linearGradient>
</defs>
</svg>
